<?xml version="1.0" encoding="UTF-8" standalone="no"?>
<svg
   xmlns:dc="http://purl.org/dc/elements/1.1/"
   xmlns:cc="http://creativecommons.org/ns#"
   xmlns:rdf="http://www.w3.org/1999/02/22-rdf-syntax-ns#"
   xmlns:svg="http://www.w3.org/2000/svg"
   xmlns="http://www.w3.org/2000/svg"
   xmlns:sodipodi="http://sodipodi.sourceforge.net/DTD/sodipodi-0.dtd"
   xmlns:inkscape="http://www.inkscape.org/namespaces/inkscape"
   viewBox="0 0 64 80.00000125"
   version="1.1"
   x="0px"
   y="0px"
   id="svg3761"
   sodipodi:docname="versioned-ids-logo.svg"
   inkscape:version="0.92.2 5c3e80d, 2017-08-06"
   inkscape:export-filename="/Users/dave/git/davejoyce/versioned-ids/src/site/versioned-ids-logo_282x60.png"
   inkscape:export-xdpi="72.02433"
   inkscape:export-ydpi="72.02433">
  <metadata
     id="metadata3767">
    <rdf:RDF>
      <cc:Work
         rdf:about="">
        <dc:format>image/svg+xml</dc:format>
        <dc:type
           rdf:resource="http://purl.org/dc/dcmitype/StillImage" />
        <dc:title />
      </cc:Work>
    </rdf:RDF>
  </metadata>
  <defs
     id="defs3765" />
  <sodipodi:namedview
     pagecolor="#ffffff"
     bordercolor="#666666"
     borderopacity="1"
     objecttolerance="10"
     gridtolerance="10"
     guidetolerance="10"
     inkscape:pageopacity="0"
     inkscape:pageshadow="2"
     inkscape:window-width="1280"
     inkscape:window-height="699"
     id="namedview3763"
     showgrid="false"
     inkscape:zoom="2.9291808"
     inkscape:cx="31.877705"
     inkscape:cy="72.592592"
     inkscape:window-x="0"
     inkscape:window-y="0"
     inkscape:window-maximized="0"
     inkscape:current-layer="layer2" />
  <g
     inkscape:groupmode="layer"
     id="layer2"
     inkscape:label="logo"
     style="display:inline">
    <text
       xml:space="preserve"
       style="font-style:normal;font-weight:normal;font-size:18.66666667px;line-height:1.25;font-family:Verdana;letter-spacing:0px;word-spacing:0px;fill:#000000;fill-opacity:1;stroke:none;-inkscape-font-specification:Verdana;font-stretch:normal;font-variant:normal;"
       x="15.967078"
       y="46.419754"
       id="text891"><tspan
         sodipodi:role="line"
         id="tspan889"
         x="15.967078"
         y="81.810379" /></text>
    <g
       id="g912"
       transform="matrix(5.9950123,0,0,5.9950123,-159.22955,-37.000093)">
      <g
         transform="matrix(0.34419849,0,0,0.33351818,-3.1675357,-5.2966746)"
         id="g4762">
        <g
           style="display:inline"
           transform="translate(0.82758956,-982.27161)"
           id="g3755">
          <path
             style="color:#000000;font-style:normal;font-variant:normal;font-weight:normal;font-stretch:normal;font-size:medium;line-height:normal;font-family:sans-serif;text-indent:0;text-align:start;text-decoration:none;text-decoration-line:none;text-decoration-style:solid;text-decoration-color:#000000;letter-spacing:normal;word-spacing:normal;text-transform:none;writing-mode:lr-tb;direction:ltr;baseline-shift:baseline;text-anchor:start;white-space:normal;clip-rule:nonzero;display:inline;overflow:visible;visibility:visible;opacity:1;isolation:auto;mix-blend-mode:normal;color-interpolation:sRGB;color-interpolation-filters:linearRGB;solid-color:#000000;solid-opacity:1;fill:#000000;fill-opacity:1;fill-rule:nonzero;stroke:none;stroke-width:1;stroke-linecap:round;stroke-linejoin:round;stroke-miterlimit:4;stroke-dasharray:none;stroke-dashoffset:0;stroke-opacity:1;color-rendering:auto;image-rendering:auto;shape-rendering:auto;text-rendering:auto;enable-background:accumulate"
             d="m 32.345703,11.998047 c -4.2688,-0.074 -8.491931,1.222212 -12.019531,3.757812 a 0.50030297,0.50030297 0 0 0 0.583984,0.8125 c 4.4687,-3.2121 10.109444,-4.3301 15.464844,-3.0625 a 0.50005,0.50005 0 1 0 0.230469,-0.972656 c -1.4092,-0.3335 -2.836766,-0.510556 -4.259766,-0.535156 z m 6.996094,1.431641 a 0.50005,0.50005 0 0 0 -0.183594,0.966796 c 7.8605,3.1977 12.646669,11.213991 11.730469,19.650391 a 0.50005,0.50005 0 1 0 0.99414,0.107422 c 0.963901,-8.8758 -4.077756,-17.319294 -12.347656,-20.683594 a 0.50005,0.50005 0 0 0 -0.193359,-0.04101 z m -7.53125,1.455078 c -0.3848,0 -0.769197,0.02173 -1.154297,0.05273 a 0.50005,0.50005 0 1 0 0.07813,0.996094 c 2.9013,-0.2285 5.810269,0.334853 8.417969,1.626953 a 0.50007008,0.50007008 0 1 0 0.443359,-0.896485 c -2.4233,-1.200799 -5.091956,-1.808896 -7.785156,-1.779296 z m -4.107422,0.564453 a 0.50005,0.50005 0 0 0 -0.132813,0.01953 c -7.4782,2.0037 -12.68174,8.785244 -12.68164,16.527344 0,2.1127 0.172731,3.046872 -0.04297,4.951172 -0.1252,0.9142 -0.524584,1.769171 -1.146484,2.451172 a 0.50050905,0.50050905 0 0 0 0.740234,0.673828 c 0.7596,-0.8329 1.246538,-1.877241 1.398438,-2.994141 a 0.50005,0.50005 0 0 0 0,-0.01172 c 0.2278,-2.0045 0.04883,-3.011412 0.04883,-5.070312 -10e-5,-7.2943 4.895706,-13.6746 11.941406,-15.5625 a 0.50005,0.50005 0 0 0 -0.123047,-0.984375 z m -9.501953,2.253906 a 0.50005,0.50005 0 0 0 -0.34375,0.150391 c -4.6204,4.6204 -6.692228,11.209178 -5.548828,17.642578 a 0.50005,0.50005 0 1 0 0.984375,-0.175782 c -1.0864,-6.1127 0.881484,-12.369665 5.271484,-16.759765 a 0.50005,0.50005 0 0 0 -0.363281,-0.857422 z m 13.691406,0.06836 v 0.002 c -0.3812,0 -0.761372,0.01873 -1.138672,0.05273 -4.5269,0.3998 -8.705912,2.961441 -11.070312,7.05664 a 0.50005,0.50005 0 1 0 0.865234,0.5 c 2.933,-5.08 8.856894,-7.618734 14.558594,-6.240234 5.7017,1.3784 9.809356,6.342372 10.097656,12.201172 a 0.50064983,0.50064983 0 1 0 1,-0.05078 c -0.3099,-6.2974 -4.734781,-11.6433 -10.863281,-13.125 -1.1491,-0.2778 -2.305819,-0.405385 -3.449219,-0.396485 z m 10.03711,0.423828 A 0.50005,0.50005 0 0 0 41.65625,19.09961 c 2.6769,2.0046 4.664447,4.791963 5.685547,7.976563 a 0.50005,0.50005 0 1 0 0.951172,-0.304688 c -1.0845,-3.3821 -3.19411,-6.343856 -6.03711,-8.472656 A 0.50005,0.50005 0 0 0 41.929688,18.195313 Z M 32,20.662109 c -3.4021,10e-5 -6.625244,1.529363 -8.777344,4.164063 -2.1522,2.6348 -3.007125,6.098141 -2.328125,9.43164 A 0.50026515,0.50026515 0 1 0 21.875,34.058594 c -0.6193,-3.0401 0.160347,-6.19681 2.123047,-8.59961 1.9626,-2.4028 4.899453,-3.796775 8.001953,-3.796875 a 0.50005,0.50005 0 1 0 0,-1 z m 3.283203,0.503907 0.002,0.002 a 0.50005,0.50005 0 0 0 -0.05078,0 0.50005,0.50005 0 0 0 -0.105469,0.978515 c 4.2917,1.3639 7.203125,5.344557 7.203125,9.847657 a 0.50005,0.50005 0 0 0 0,0.0098 c 0.056,2.674 0.04604,5.456888 -0.222656,7.867188 a 0.50021086,0.50021086 0 0 0 0.994141,0.111328 c 0.277,-2.4883 0.283062,-5.302634 0.226562,-7.990234 -8e-4,-4.9339 -3.198091,-9.304329 -7.90039,-10.798829 a 0.50005,0.50005 0 0 0 -0.146485,-0.02734 z m -3.767578,2.398437 c -1.0944,0.063 -2.182972,0.339984 -3.201172,0.833985 A 0.50011687,0.50011687 0 1 0 28.75,25.298828 c 2.395,-1.162 5.226788,-0.957391 7.429688,0.53711 a 0.50005,0.50005 0 1 0 0.560546,-0.828126 c -1.2487,-0.847099 -2.675759,-1.328393 -4.130859,-1.433593 -0.3638,-0.026 -0.72895,-0.03077 -1.09375,-0.0098 z m -5.142578,2.308594 a 0.50005,0.50005 0 0 0 -0.34375,0.152344 c -1.5835,1.5835 -2.47461,3.731303 -2.474609,5.970703 v 3.314453 c 0,4.2351 -1.751429,8.153531 -4.673829,11.019531 a 0.50005,0.50005 0 1 0 0.699219,0.712891 c 3.1054,-3.0454 4.974609,-7.221322 4.97461,-11.732422 v -3.314453 c 0,-1.9746 0.78544,-3.867372 2.18164,-5.263672 A 0.50005,0.50005 0 0 0 26.373047,25.873047 Z M 32,26.445312 a 0.50005,0.50005 0 0 0 -0.185547,0.03516 c -1.391,0.049 -2.721984,0.592784 -3.708984,1.583984 -1.033,1.0371 -1.613282,2.442403 -1.613281,3.908203 l -0.01563,2.179688 a 0.50005,0.50005 0 1 0 1,0.0098 l 0.01563,-2.18164 c 0,-1.202 0.476265,-2.353625 1.322265,-3.203125 0.8456,-0.8491 1.990647,-1.325572 3.185547,-1.326172 2.521,0 4.552734,2.033487 4.552734,4.554687 v 1.445313 c 0,2.6349 -0.272653,5.261244 -0.814453,7.839844 a 0.50012672,0.50012672 0 1 0 0.978516,0.207031 c 0.5559,-2.6462 0.835937,-5.342875 0.835937,-8.046875 v -1.445313 c 0,-2.9966 -2.39744,-5.413678 -5.36914,-5.517578 A 0.50005,0.50005 0 0 0 32,26.451172 Z m 6.613281,0.650391 a 0.50005,0.50005 0 0 0 -0.412109,0.783203 c 0.9353,1.409 1.363091,3.092944 1.21289,4.777344 a 0.5000788,0.5000788 0 0 0 0.996094,0.08984 c 0.1704,-1.9105 -0.3142,-3.821922 -1.375,-5.419922 A 0.50005,0.50005 0 0 0 38.613281,27.095703 Z M 18.720703,27.9375 a 0.50005,0.50005 0 0 0 -0.458984,0.376953 c -0.3845,1.4355 -0.540744,2.923903 -0.464844,4.408203 0.051,1.5791 -0.03753,2.146363 -0.01953,4.351563 a 0.50005,0.50005 0 0 0 0,0.0098 c 0.047,1.8821 -0.956,3.638685 -2.625,4.583985 a 0.50026894,0.50026894 0 0 0 0.492187,0.871093 c 1.9829,-1.1231 3.189413,-3.227168 3.132813,-5.480468 -0.017,-2.1722 0.07058,-2.748153 0.01758,-4.376953 a 0.50005,0.50005 0 0 0 0,-0.0098 c -0.071,-1.3799 0.07599,-2.761003 0.433594,-4.095703 A 0.50005,0.50005 0 0 0 18.720703,27.9375 Z M 32,29.328125 c -1.4668,0 -2.666016,1.201169 -2.666016,2.667969 l -0.0293,2.736328 c -0.120001,2.699 -0.614804,5.367387 -1.470704,7.929687 a 0.50005,0.50005 0 1 0 0.947266,0.316407 c 0.8852,-2.6504 1.397384,-5.409572 1.521484,-8.201172 a 0.50005,0.50005 0 0 0 0,-0.01953 l 0.0293,-2.759765 c 0,-0.9264 0.739616,-1.668069 1.666016,-1.667969 0.9264,0 1.666015,0.741569 1.666015,1.667969 a 0.50005,0.50005 0 1 0 1,0 c 0,-1.4668 -1.199215,-2.668069 -2.666015,-2.667969 z m 16.447266,0.01367 v 0.0059 a 0.50005,0.50005 0 0 0 -0.472657,0.570313 c 0.08,0.6116 0.125466,1.22705 0.134766,1.84375 v 3.130859 c 0,3.0417 -0.413922,6.068547 -1.232422,8.998047 a 0.50005,0.50005 0 1 0 0.962891,0.269531 c 0.8429,-3.0171 1.269531,-6.134878 1.269531,-9.267578 v -3.138672 a 0.50005,0.50005 0 0 0 0,-0.01172 c -0.01,-0.6549 -0.05798,-1.309385 -0.142578,-1.958985 a 0.50005,0.50005 0 0 0 -0.519531,-0.441406 z m -2.748047,4.34375 a 0.50005,0.50005 0 0 0 -0.484375,0.515625 c 0.079,4.5249 -0.625031,9.029853 -2.082032,13.314453 a 0.50031355,0.50031355 0 1 0 0.947266,0.322266 c 1.4942,-4.3939 2.216066,-9.013997 2.134766,-13.654297 a 0.50005,0.50005 0 0 0 -0.515625,-0.498047 z m -11.701172,0.6875 a 0.50005,0.50005 0 0 0 -0.480469,0.466797 c -0.444,5.7017 -2.263494,11.220915 -5.308594,16.103515 a 0.50005,0.50005 0 1 0 0.84961,0.527344 c 3.1295,-5.0179 4.998578,-10.690034 5.455078,-16.552734 a 0.50005,0.50005 0 0 0 -0.515625,-0.544922 z m 5.941406,0.75 A 0.50005,0.50005 0 0 0 39.4375,35.621094 c -0.1,5.2342 -1.266434,10.393909 -3.427734,15.162109 a 0.50005,0.50005 0 1 0 0.910156,0.412109 c 2.2175,-4.892 3.415278,-10.184487 3.517578,-15.554687 a 0.50005,0.50005 0 0 0 -0.498047,-0.517578 z m -18.820312,1.433594 a 0.50005,0.50005 0 0 0 -0.476563,0.472656 c -0.1921,2.843 -1.5481,5.480462 -3.75,7.289062 a 0.50005,0.50005 0 1 0 0.634766,0.771485 c 2.4147,-1.9833 3.902681,-4.874588 4.113281,-7.992188 a 0.50005,0.50005 0 0 0 -0.521484,-0.541015 z m 5.488281,0.0078 -0.002,0.002 a 0.50005,0.50005 0 0 0 -0.464844,0.427735 c -0.6455,4.0973 -2.294681,7.972143 -4.800781,11.277343 A 0.50005,0.50005 0 1 0 22.136719,48.875 c 2.6057,-3.4367 4.321187,-7.464309 4.992187,-11.724609 a 0.50005,0.50005 0 0 0 -0.521484,-0.585938 z m 15.539062,5.767578 a 0.50005,0.50005 0 0 0 -0.482422,0.408203 c -0.4705,2.3542 -1.185512,4.653475 -2.132812,6.859375 a 0.50005,0.50005 0 1 0 0.917969,0.394532 c 0.9749,-2.2697 1.711212,-4.636294 2.195312,-7.058594 a 0.50005,0.50005 0 0 0 -0.498047,-0.603516 z m -6.652343,1.435547 a 0.50005,0.50005 0 0 0 -0.466797,0.365234 c -0.7212,2.470601 -1.691632,4.861319 -2.894532,7.136719 a 0.50063728,0.50063728 0 1 0 0.884766,0.46875 c 1.2344,-2.335 2.22865,-4.788719 2.96875,-7.324219 a 0.50005,0.50005 0 0 0 -0.492187,-0.646484 z m -8.371094,1.458984 a 0.50005,0.50005 0 0 0 -0.414063,0.298829 c -0.6813,1.4938 -1.487156,2.927256 -2.410156,4.285156 a 0.50005,0.50005 0 1 0 0.826172,0.5625 c 0.9546,-1.4045 1.789541,-2.888394 2.494141,-4.433594 a 0.50005,0.50005 0 0 0 -0.445313,-0.712891 0.50005,0.50005 0 0 0 -0.05078,0 z"
             transform="translate(0,988.36214)"
             id="path3753"
             inkscape:connector-curvature="0" />
        </g>
        <rect
           style="fill:#ffffff;fill-opacity:1;stroke-width:0.71948916"
           id="rect4701"
           width="42.90276"
           height="8.9850206"
           x="11.284996"
           y="33.711769" />
        <g
           transform="matrix(5.2176462,0,0,4.2391752,10.739271,-1203.0149)"
           id="g3857">
          <path
             inkscape:connector-curvature="0"
             style="color:#000000;font-style:normal;font-variant:normal;font-weight:normal;font-stretch:normal;font-size:medium;line-height:normal;font-family:sans-serif;text-indent:0;text-align:start;text-decoration:none;text-decoration-line:none;text-decoration-style:solid;text-decoration-color:#000000;letter-spacing:normal;word-spacing:normal;text-transform:none;writing-mode:lr-tb;direction:ltr;baseline-shift:baseline;text-anchor:start;white-space:normal;clip-rule:nonzero;display:inline;overflow:visible;visibility:visible;opacity:1;isolation:auto;mix-blend-mode:normal;color-interpolation:sRGB;color-interpolation-filters:linearRGB;solid-color:#000000;solid-opacity:1;fill:#000000;fill-opacity:1;fill-rule:nonzero;stroke:none;stroke-width:0.26500002;stroke-linecap:round;stroke-linejoin:round;stroke-miterlimit:4;stroke-dasharray:none;stroke-dashoffset:0;stroke-opacity:1;color-rendering:auto;image-rendering:auto;shape-rendering:auto;text-rendering:auto;enable-background:accumulate"
             d="m 1.0585938,291.95117 c -0.16922266,0 -0.30745483,0.11266 -0.3945313,0.25781 -0.0870765,0.14516 -0.13476561,0.33108 -0.13476562,0.53516 1e-8,0.20408 0.0476892,0.39 0.13476562,0.53516 0.0870765,0.14515 0.22530864,0.25781 0.3945313,0.25781 0.1692226,0 0.3074547,-0.11266 0.3945312,-0.25781 0.087077,-0.14516 0.1347656,-0.33108 0.1347656,-0.53516 0,-0.20408 -0.047689,-0.39 -0.1347656,-0.53516 -0.087077,-0.14515 -0.2253086,-0.25781 -0.3945312,-0.25781 z m 0,0.26367 c 0.04985,0 0.1095269,0.0367 0.1660156,0.13086 0.056489,0.0942 0.097656,0.23732 0.097656,0.39844 0,0.16112 -0.041168,0.30622 -0.097656,0.40039 -0.056489,0.0942 -0.1161653,0.12891 -0.1660156,0.12891 -0.04985,0 -0.11148016,-0.0347 -0.1679688,-0.12891 -0.0564886,-0.0942 -0.0957031,-0.23927 -0.0957031,-0.40039 1e-8,-0.16112 0.0392145,-0.30427 0.0957031,-0.39844 0.0564886,-0.0942 0.1181184,-0.13086 0.1679688,-0.13086 z"
             id="path3841" />
          <path
             inkscape:connector-curvature="0"
             style="color:#000000;font-style:normal;font-variant:normal;font-weight:normal;font-stretch:normal;font-size:medium;line-height:normal;font-family:sans-serif;text-indent:0;text-align:start;text-decoration:none;text-decoration-line:none;text-decoration-style:solid;text-decoration-color:#000000;letter-spacing:normal;word-spacing:normal;text-transform:none;writing-mode:lr-tb;direction:ltr;baseline-shift:baseline;text-anchor:start;white-space:normal;clip-rule:nonzero;display:inline;overflow:visible;visibility:visible;opacity:1;isolation:auto;mix-blend-mode:normal;color-interpolation:sRGB;color-interpolation-filters:linearRGB;solid-color:#000000;solid-opacity:1;fill:#000000;fill-opacity:1;fill-rule:nonzero;stroke:none;stroke-width:0.26500002;stroke-linecap:round;stroke-linejoin:round;stroke-miterlimit:4;stroke-dasharray:none;stroke-dashoffset:0;stroke-opacity:1;color-rendering:auto;image-rendering:auto;shape-rendering:auto;text-rendering:auto;enable-background:accumulate"
             d="m 7.0097656,291.60156 a 0.13251326,0.13251326 0 0 0 -0.1308594,0.13477 c -0.00177,0.26547 0.074986,0.51392 0.2363282,0.67187 0.080635,0.079 0.1821262,0.12783 0.2890625,0.12891 0.1069363,0.001 0.2113891,-0.0453 0.2929687,-0.12305 0.1630841,-0.15562 0.2402347,-0.40443 0.2402344,-0.66992 a 0.1328125,0.1328125 0 1 0 -0.265625,0 c 2e-7,0.20875 -0.074395,0.39854 -0.1582031,0.47852 -0.0419,0.0399 -0.074964,0.0511 -0.1054688,0.0508 -0.030504,-3.1e-4 -0.065437,-0.0135 -0.1074219,-0.0547 -0.083962,-0.0822 -0.1576386,-0.27174 -0.15625,-0.48047 a 0.13251326,0.13251326 0 0 0 -0.1347656,-0.13672 z"
             id="path3843" />
          <path
             inkscape:connector-curvature="0"
             style="color:#000000;font-style:normal;font-variant:normal;font-weight:normal;font-stretch:normal;font-size:medium;line-height:normal;font-family:sans-serif;text-indent:0;text-align:start;text-decoration:none;text-decoration-line:none;text-decoration-style:solid;text-decoration-color:#000000;letter-spacing:normal;word-spacing:normal;text-transform:none;writing-mode:lr-tb;direction:ltr;baseline-shift:baseline;text-anchor:start;white-space:normal;clip-rule:nonzero;display:inline;overflow:visible;visibility:visible;opacity:1;isolation:auto;mix-blend-mode:normal;color-interpolation:sRGB;color-interpolation-filters:linearRGB;solid-color:#000000;solid-opacity:1;fill:#000000;fill-opacity:1;fill-rule:nonzero;stroke:none;stroke-width:0.26500002;stroke-linecap:round;stroke-linejoin:round;stroke-miterlimit:4;stroke-dasharray:none;stroke-dashoffset:0;stroke-opacity:1;color-rendering:auto;image-rendering:auto;shape-rendering:auto;text-rendering:auto;enable-background:accumulate"
             d="m 5.4238281,291.95117 c -0.1692226,0 -0.3074547,0.11266 -0.3945312,0.25781 -0.087077,0.14516 -0.1347656,0.33108 -0.1347657,0.53516 10e-8,0.20408 0.047689,0.39 0.1347657,0.53516 0.087076,0.14515 0.2253086,0.25781 0.3945312,0.25781 0.1692226,0 0.3074549,-0.11266 0.3945313,-0.25781 0.087076,-0.14516 0.1347656,-0.33108 0.1347656,-0.53516 0,-0.20408 -0.047689,-0.39 -0.1347656,-0.53516 -0.087076,-0.14515 -0.2253087,-0.25781 -0.3945313,-0.25781 z m 0,0.26367 c 0.04985,0 0.1114802,0.0367 0.1679688,0.13086 0.056489,0.0942 0.095703,0.23732 0.095703,0.39844 0,0.16112 -0.039214,0.30622 -0.095703,0.40039 -0.056489,0.0942 -0.1181185,0.12891 -0.1679688,0.12891 -0.04985,0 -0.1095269,-0.0347 -0.1660156,-0.12891 -0.056489,-0.0942 -0.097656,-0.23927 -0.097656,-0.40039 10e-8,-0.16112 0.041168,-0.30427 0.097656,-0.39844 0.056489,-0.0942 0.1161653,-0.13086 0.1660156,-0.13086 z"
             id="path3845" />
          <path
             inkscape:connector-curvature="0"
             style="color:#000000;font-style:normal;font-variant:normal;font-weight:normal;font-stretch:normal;font-size:medium;line-height:normal;font-family:sans-serif;text-indent:0;text-align:start;text-decoration:none;text-decoration-line:none;text-decoration-style:solid;text-decoration-color:#000000;letter-spacing:normal;word-spacing:normal;text-transform:none;writing-mode:lr-tb;direction:ltr;baseline-shift:baseline;text-anchor:start;white-space:normal;clip-rule:nonzero;display:inline;overflow:visible;visibility:visible;opacity:1;isolation:auto;mix-blend-mode:normal;color-interpolation:sRGB;color-interpolation-filters:linearRGB;solid-color:#000000;solid-opacity:1;fill:#000000;fill-opacity:1;fill-rule:nonzero;stroke:none;stroke-width:0.26500002;stroke-linecap:round;stroke-linejoin:round;stroke-miterlimit:4;stroke-dasharray:none;stroke-dashoffset:0;stroke-opacity:1;color-rendering:auto;image-rendering:auto;shape-rendering:auto;text-rendering:auto;enable-background:accumulate"
             d="m 3.96875,291.95117 c -0.1692226,0 -0.3074548,0.11266 -0.3945312,0.25781 -0.087077,0.14516 -0.1347657,0.33108 -0.1347657,0.53516 0,0.20408 0.047689,0.39 0.1347657,0.53516 0.087076,0.14515 0.2253086,0.25781 0.3945312,0.25781 0.1692226,0 0.3074548,-0.11266 0.3945312,-0.25781 0.087076,-0.14516 0.1347657,-0.33108 0.1347657,-0.53516 0,-0.20408 -0.047689,-0.39 -0.1347657,-0.53516 -0.087076,-0.14515 -0.2253086,-0.25781 -0.3945312,-0.25781 z m 0,0.26367 c 0.04985,0 0.1114801,0.0367 0.1679688,0.13086 0.056489,0.0942 0.095703,0.23732 0.095703,0.39844 0,0.16112 -0.039214,0.30622 -0.095703,0.40039 -0.056489,0.0942 -0.1181185,0.12891 -0.1679688,0.12891 -0.04985,0 -0.109527,-0.0347 -0.1660156,-0.12891 -0.056489,-0.0942 -0.097656,-0.23927 -0.097656,-0.40039 0,-0.16112 0.041168,-0.30427 0.097656,-0.39844 0.056489,-0.0942 0.1161653,-0.13086 0.1660156,-0.13086 z"
             id="path3847" />
          <path
             inkscape:connector-curvature="0"
             style="color:#000000;font-style:normal;font-variant:normal;font-weight:normal;font-stretch:normal;font-size:medium;line-height:normal;font-family:sans-serif;text-indent:0;text-align:start;text-decoration:none;text-decoration-line:none;text-decoration-style:solid;text-decoration-color:#000000;letter-spacing:normal;word-spacing:normal;text-transform:none;writing-mode:lr-tb;direction:ltr;baseline-shift:baseline;text-anchor:start;white-space:normal;clip-rule:nonzero;display:inline;overflow:visible;visibility:visible;opacity:1;isolation:auto;mix-blend-mode:normal;color-interpolation:sRGB;color-interpolation-filters:linearRGB;solid-color:#000000;solid-opacity:1;fill:#000000;fill-opacity:1;fill-rule:nonzero;stroke:none;stroke-width:0.26500002;stroke-linecap:round;stroke-linejoin:round;stroke-miterlimit:4;stroke-dasharray:none;stroke-dashoffset:0;stroke-opacity:1;color-rendering:auto;image-rendering:auto;shape-rendering:auto;text-rendering:auto;enable-background:accumulate"
             d="m 2.5136719,291.95117 c -0.1692226,0 -0.3074548,0.11266 -0.3945313,0.25781 -0.087076,0.14516 -0.1347656,0.33108 -0.1347656,0.53516 0,0.20408 0.047689,0.39 0.1347656,0.53516 0.087076,0.14515 0.2253087,0.25781 0.3945313,0.25781 0.1692226,0 0.3074548,-0.11266 0.3945312,-0.25781 0.087076,-0.14516 0.1347656,-0.33108 0.1347657,-0.53516 -1e-7,-0.20408 -0.047689,-0.39 -0.1347657,-0.53516 -0.087076,-0.14515 -0.2253086,-0.25781 -0.3945312,-0.25781 z m 0,0.26367 c 0.04985,0 0.109527,0.0367 0.1660156,0.13086 0.056489,0.0942 0.097656,0.23732 0.097656,0.39844 -1e-7,0.16112 -0.041168,0.30622 -0.097656,0.40039 -0.056489,0.0942 -0.1161653,0.12891 -0.1660156,0.12891 -0.04985,0 -0.109527,-0.0347 -0.1660157,-0.12891 C 2.2911676,293.05036 2.25,292.90526 2.25,292.74414 c 0,-0.16112 0.041168,-0.30427 0.097656,-0.39844 0.056489,-0.0942 0.1161653,-0.13086 0.1660159,-0.13086 z"
             id="path3849" />
          <path
             inkscape:connector-curvature="0"
             style="color:#000000;font-style:normal;font-variant:normal;font-weight:normal;font-stretch:normal;font-size:medium;line-height:normal;font-family:sans-serif;text-indent:0;text-align:start;text-decoration:none;text-decoration-line:none;text-decoration-style:solid;text-decoration-color:#000000;letter-spacing:normal;word-spacing:normal;text-transform:none;writing-mode:lr-tb;direction:ltr;baseline-shift:baseline;text-anchor:start;white-space:normal;clip-rule:nonzero;display:inline;overflow:visible;visibility:visible;opacity:1;isolation:auto;mix-blend-mode:normal;color-interpolation:sRGB;color-interpolation-filters:linearRGB;solid-color:#000000;solid-opacity:1;fill:#000000;fill-opacity:1;fill-rule:nonzero;stroke:none;stroke-width:0.26500002;stroke-linecap:round;stroke-linejoin:round;stroke-miterlimit:4;stroke-dasharray:none;stroke-dashoffset:0;stroke-opacity:1;color-rendering:auto;image-rendering:auto;shape-rendering:auto;text-rendering:auto;enable-background:accumulate"
             d="M 0.11914062,291.53516 C 0.05110864,291.54206 -5.0202426e-4,291.59959 0,291.66797 v 2.19726 c -1.7014416e-4,0.0734 0.0593906,0.13299 0.1328125,0.13282 h 8.2011719 c 0.073422,1.7e-4 0.1329826,-0.0594 0.1328125,-0.13282 v -2.19726 c 1.646e-4,-0.0734 -0.059394,-0.13298 -0.1328125,-0.13281 -2.7380146,0 -5.4777883,0 -8.21484378,0 z m 0.14648438,0.26562 h 7.9355469 v 1.93164 H 0.265625 Z"
             id="path3851" />
          <path
             inkscape:connector-curvature="0"
             style="color:#000000;font-style:normal;font-variant:normal;font-weight:normal;font-stretch:normal;font-size:medium;line-height:normal;font-family:sans-serif;text-indent:0;text-align:start;text-decoration:none;text-decoration-line:none;text-decoration-style:solid;text-decoration-color:#000000;letter-spacing:normal;word-spacing:normal;text-transform:none;writing-mode:lr-tb;direction:ltr;baseline-shift:baseline;text-anchor:start;white-space:normal;clip-rule:nonzero;display:inline;overflow:visible;visibility:visible;opacity:1;isolation:auto;mix-blend-mode:normal;color-interpolation:sRGB;color-interpolation-filters:linearRGB;solid-color:#000000;solid-opacity:1;fill:#000000;fill-opacity:1;fill-rule:nonzero;stroke:none;stroke-width:0.26500002;stroke-linecap:round;stroke-linejoin:round;stroke-miterlimit:4;stroke-dasharray:none;stroke-dashoffset:0;stroke-opacity:1;color-rendering:auto;image-rendering:auto;shape-rendering:auto;text-rendering:auto;enable-background:accumulate"
             d="m 7.4121094,292.78711 c -0.1350769,-10e-4 -0.2626896,0.0734 -0.3535156,0.19141 -0.181575,0.23618 -0.2257538,0.59425 -0.1386719,0.9121 a 0.13267204,0.13267204 0 0 0 0.2558593,-0.0703 c -0.065477,-0.23899 -0.014198,-0.53927 0.09375,-0.67969 0.053979,-0.0702 0.101968,-0.0902 0.140625,-0.0898 0.038657,3.9e-4 0.086824,0.0201 0.140625,0.0918 0.1076196,0.14329 0.1568436,0.44622 0.089844,0.68359 a 0.13251326,0.13251326 0 1 0 0.2539062,0.0723 c 0.089351,-0.31656 0.04651,-0.6753 -0.1328124,-0.91406 -0.089615,-0.11943 -0.2145325,-0.1959 -0.3496094,-0.19727 z"
             id="path3853" />
          <path
             inkscape:connector-curvature="0"
             style="color:#000000;font-style:normal;font-variant:normal;font-weight:normal;font-stretch:normal;font-size:medium;line-height:normal;font-family:sans-serif;text-indent:0;text-align:start;text-decoration:none;text-decoration-line:none;text-decoration-style:solid;text-decoration-color:#000000;letter-spacing:normal;word-spacing:normal;text-transform:none;writing-mode:lr-tb;direction:ltr;baseline-shift:baseline;text-anchor:start;white-space:normal;clip-rule:nonzero;display:inline;overflow:visible;visibility:visible;opacity:1;isolation:auto;mix-blend-mode:normal;color-interpolation:sRGB;color-interpolation-filters:linearRGB;solid-color:#000000;solid-opacity:1;fill:#000000;fill-opacity:1;fill-rule:evenodd;stroke:none;stroke-width:0.26458335px;stroke-linecap:butt;stroke-linejoin:miter;stroke-miterlimit:4;stroke-dasharray:none;stroke-dashoffset:0;stroke-opacity:1;color-rendering:auto;image-rendering:auto;shape-rendering:auto;text-rendering:auto;enable-background:accumulate"
             d="m 6.3496094,291.68555 v 2.18359 h 0.265625 v -2.18359 z"
             id="path3855" />
        </g>
      </g>
      <text
         id="text895"
         y="10.050523"
         x="17.034935"
         style="font-style:normal;font-variant:normal;font-weight:normal;font-stretch:normal;font-size:6.9666667px;line-height:1.25;font-family:'Lucida Sans';-inkscape-font-specification:'Lucida Sans, Normal';font-variant-ligatures:normal;font-variant-caps:normal;font-variant-numeric:normal;font-feature-settings:normal;text-align:start;letter-spacing:0px;word-spacing:0px;writing-mode:lr-tb;text-anchor:start;fill:#000000;fill-opacity:1;stroke:none;stroke-width:0.47499999"
         xml:space="preserve"><tspan
           style="stroke-width:0.47499999"
           y="10.050523"
           x="17.034935"
           id="tspan893"
           sodipodi:role="line">Versioned IDs</tspan></text>
    </g>
  </g>
</svg>
