<svg xmlns:dc="http://purl.org/dc/elements/1.1/" xmlns:cc="http://creativecommons.org/ns#" xmlns:rdf="http://www.w3.org/1999/02/22-rdf-syntax-ns#" xmlns:svg="http://www.w3.org/2000/svg" xmlns="http://www.w3.org/2000/svg" xmlns:sodipodi="http://sodipodi.sourceforge.net/DTD/sodipodi-0.dtd" xmlns:inkscape="http://www.inkscape.org/namespaces/inkscape" viewBox="0 0 64 80.00000125" version="1.1" x="0px" y="0px"><g transform="translate(0,-988.36214)"><path style="color:#000000;font-style:normal;font-variant:normal;font-weight:normal;font-stretch:normal;font-size:medium;line-height:normal;font-family:sans-serif;text-indent:0;text-align:start;text-decoration:none;text-decoration-line:none;text-decoration-style:solid;text-decoration-color:#000000;letter-spacing:normal;word-spacing:normal;text-transform:none;direction:ltr;block-progression:tb;writing-mode:lr-tb;baseline-shift:baseline;text-anchor:start;white-space:normal;clip-rule:nonzero;display:inline;overflow:visible;visibility:visible;opacity:1;isolation:auto;mix-blend-mode:normal;color-interpolation:sRGB;color-interpolation-filters:linearRGB;solid-color:#000000;solid-opacity:1;fill:#000000;fill-opacity:1;fill-rule:nonzero;stroke:none;stroke-width:1;stroke-linecap:round;stroke-linejoin:round;stroke-miterlimit:4;stroke-dasharray:none;stroke-dashoffset:0;stroke-opacity:1;color-rendering:auto;image-rendering:auto;shape-rendering:auto;text-rendering:auto;enable-background:accumulate" d="M 32.345703 11.998047 C 28.076903 11.924047 23.853772 13.220259 20.326172 15.755859 A 0.50030297 0.50030297 0 0 0 20.910156 16.568359 C 25.378856 13.356259 31.0196 12.238259 36.375 13.505859 A 0.50005 0.50005 0 1 0 36.605469 12.533203 C 35.196269 12.199703 33.768703 12.022647 32.345703 11.998047 z M 39.341797 13.429688 A 0.50005 0.50005 0 0 0 39.158203 14.396484 C 47.018703 17.594184 51.804872 25.610475 50.888672 34.046875 A 0.50005 0.50005 0 1 0 51.882812 34.154297 C 52.846713 25.278497 47.805056 16.835003 39.535156 13.470703 A 0.50005 0.50005 0 0 0 39.341797 13.429688 z M 31.810547 14.884766 C 31.425747 14.884766 31.04135 14.9065 30.65625 14.9375 A 0.50005 0.50005 0 1 0 30.734375 15.933594 C 33.635675 15.705094 36.544644 16.268447 39.152344 17.560547 A 0.50007008 0.50007008 0 1 0 39.595703 16.664062 C 37.172403 15.463263 34.503747 14.855166 31.810547 14.884766 z M 27.703125 15.449219 A 0.50005 0.50005 0 0 0 27.570312 15.46875 C 20.092112 17.47245 14.888572 24.253994 14.888672 31.996094 C 14.888672 34.108794 15.061403 35.042966 14.845703 36.947266 C 14.720503 37.861466 14.321119 38.716437 13.699219 39.398438 A 0.50050905 0.50050905 0 0 0 14.439453 40.072266 C 15.199053 39.239366 15.685991 38.195025 15.837891 37.078125 A 0.50005 0.50005 0 0 0 15.837891 37.066406 C 16.065691 35.061906 15.886719 34.054994 15.886719 31.996094 C 15.886619 24.701794 20.782425 18.321494 27.828125 16.433594 A 0.50005 0.50005 0 0 0 27.705078 15.449219 L 27.703125 15.449219 z M 18.201172 17.703125 A 0.50005 0.50005 0 0 0 17.857422 17.853516 C 13.237022 22.473916 11.165194 29.062694 12.308594 35.496094 A 0.50005 0.50005 0 1 0 13.292969 35.320312 C 12.206569 29.207612 14.174453 22.950647 18.564453 18.560547 A 0.50005 0.50005 0 0 0 18.201172 17.703125 z M 31.892578 17.771484 L 31.892578 17.773438 C 31.511378 17.773438 31.131206 17.792172 30.753906 17.826172 C 26.227006 18.225972 22.047994 20.787613 19.683594 24.882812 A 0.50005 0.50005 0 1 0 20.548828 25.382812 C 23.481828 20.302812 29.405722 17.764078 35.107422 19.142578 C 40.809122 20.520978 44.916778 25.48495 45.205078 31.34375 A 0.50064983 0.50064983 0 1 0 46.205078 31.292969 C 45.895178 24.995569 41.470297 19.649669 35.341797 18.167969 C 34.192697 17.890169 33.035978 17.762584 31.892578 17.771484 z M 41.929688 18.195312 A 0.50005 0.50005 0 0 0 41.65625 19.099609 C 44.33315 21.104209 46.320697 23.891572 47.341797 27.076172 A 0.50005 0.50005 0 1 0 48.292969 26.771484 C 47.208469 23.389384 45.098859 20.427628 42.255859 18.298828 A 0.50005 0.50005 0 0 0 41.929688 18.195312 z M 32 20.662109 C 28.5979 20.662209 25.374756 22.191472 23.222656 24.826172 C 21.070456 27.460972 20.215531 30.924313 20.894531 34.257812 A 0.50026515 0.50026515 0 1 0 21.875 34.058594 C 21.2557 31.018494 22.035347 27.861784 23.998047 25.458984 C 25.960647 23.056184 28.8975 21.662209 32 21.662109 A 0.50005 0.50005 0 1 0 32 20.662109 z M 35.283203 21.166016 L 35.285156 21.167969 A 0.50005 0.50005 0 0 0 35.234375 21.167969 A 0.50005 0.50005 0 0 0 35.128906 22.146484 C 39.420606 23.510384 42.332031 27.491041 42.332031 31.994141 A 0.50005 0.50005 0 0 0 42.332031 32.003906 C 42.388031 34.677906 42.378075 37.460794 42.109375 39.871094 A 0.50021086 0.50021086 0 0 0 43.103516 39.982422 C 43.380516 37.494122 43.386578 34.679788 43.330078 31.992188 C 43.329278 27.058288 40.131987 22.687859 35.429688 21.193359 A 0.50005 0.50005 0 0 0 35.283203 21.166016 z M 31.515625 23.564453 C 30.421225 23.627453 29.332653 23.904437 28.314453 24.398438 A 0.50011687 0.50011687 0 1 0 28.75 25.298828 C 31.145 24.136828 33.976788 24.341437 36.179688 25.835938 A 0.50005 0.50005 0 1 0 36.740234 25.007812 C 35.491534 24.160713 34.064475 23.679419 32.609375 23.574219 C 32.245575 23.548219 31.880425 23.543453 31.515625 23.564453 z M 26.373047 25.873047 A 0.50005 0.50005 0 0 0 26.029297 26.025391 C 24.445797 27.608891 23.554687 29.756694 23.554688 31.996094 L 23.554688 35.310547 C 23.554688 39.545647 21.803259 43.464078 18.880859 46.330078 A 0.50005 0.50005 0 1 0 19.580078 47.042969 C 22.685478 43.997569 24.554687 39.821647 24.554688 35.310547 L 24.554688 31.996094 C 24.554688 30.021494 25.340128 28.128722 26.736328 26.732422 A 0.50005 0.50005 0 0 0 26.373047 25.873047 z M 32 26.445312 A 0.50005 0.50005 0 0 0 31.814453 26.480469 C 30.423453 26.529469 29.092469 27.073253 28.105469 28.064453 C 27.072469 29.101553 26.492187 30.506856 26.492188 31.972656 L 26.476562 34.152344 A 0.50005 0.50005 0 1 0 27.476562 34.162109 L 27.492188 31.980469 C 27.492188 30.778469 27.968453 29.626844 28.814453 28.777344 C 29.660053 27.928244 30.8051 27.451772 32 27.451172 C 34.521 27.451172 36.552734 29.484659 36.552734 32.005859 L 36.552734 33.451172 C 36.552734 36.086072 36.280081 38.712416 35.738281 41.291016 A 0.50012672 0.50012672 0 1 0 36.716797 41.498047 C 37.272697 38.851847 37.552734 36.155172 37.552734 33.451172 L 37.552734 32.005859 C 37.552734 29.009259 35.155294 26.592181 32.183594 26.488281 A 0.50005 0.50005 0 0 0 32 26.451172 L 32 26.445312 z M 38.613281 27.095703 A 0.50005 0.50005 0 0 0 38.201172 27.878906 C 39.136472 29.287906 39.564263 30.97185 39.414062 32.65625 A 0.5000788 0.5000788 0 0 0 40.410156 32.746094 C 40.580556 30.835594 40.095956 28.924172 39.035156 27.326172 A 0.50005 0.50005 0 0 0 38.613281 27.095703 z M 18.720703 27.9375 A 0.50005 0.50005 0 0 0 18.261719 28.314453 C 17.877219 29.749953 17.720975 31.238356 17.796875 32.722656 C 17.847875 34.301756 17.759344 34.869019 17.777344 37.074219 A 0.50005 0.50005 0 0 0 17.777344 37.083984 C 17.824344 38.966084 16.821344 40.722669 15.152344 41.667969 A 0.50026894 0.50026894 0 0 0 15.644531 42.539062 C 17.627431 41.415962 18.833944 39.311894 18.777344 37.058594 C 18.760344 34.886394 18.847922 34.310441 18.794922 32.681641 A 0.50005 0.50005 0 0 0 18.794922 32.671875 C 18.723922 31.291975 18.870916 29.910872 19.228516 28.576172 A 0.50005 0.50005 0 0 0 18.720703 27.9375 z M 32 29.328125 C 30.5332 29.328125 29.333984 30.529294 29.333984 31.996094 L 29.304688 34.732422 C 29.184687 37.431422 28.689884 40.099809 27.833984 42.662109 A 0.50005 0.50005 0 1 0 28.78125 42.978516 C 29.66645 40.328116 30.178634 37.568944 30.302734 34.777344 A 0.50005 0.50005 0 0 0 30.302734 34.757812 L 30.332031 31.998047 C 30.332031 31.071647 31.071647 30.329978 31.998047 30.330078 C 32.924447 30.330078 33.664062 31.071647 33.664062 31.998047 A 0.50005 0.50005 0 1 0 34.664062 31.998047 C 34.664062 30.531247 33.464847 29.329978 31.998047 29.330078 L 32 29.328125 z M 48.447266 29.341797 L 48.447266 29.347656 A 0.50005 0.50005 0 0 0 47.974609 29.917969 C 48.054609 30.529569 48.100075 31.145019 48.109375 31.761719 L 48.109375 34.892578 C 48.109375 37.934278 47.695453 40.961125 46.876953 43.890625 A 0.50005 0.50005 0 1 0 47.839844 44.160156 C 48.682744 41.143056 49.109375 38.025278 49.109375 34.892578 L 49.109375 31.753906 A 0.50005 0.50005 0 0 0 49.109375 31.742188 C 49.099375 31.087288 49.051397 30.432803 48.966797 29.783203 A 0.50005 0.50005 0 0 0 48.447266 29.341797 z M 45.699219 33.685547 A 0.50005 0.50005 0 0 0 45.214844 34.201172 C 45.293844 38.726072 44.589813 43.231025 43.132812 47.515625 A 0.50031355 0.50031355 0 1 0 44.080078 47.837891 C 45.574278 43.443991 46.296144 38.823894 46.214844 34.183594 A 0.50005 0.50005 0 0 0 45.699219 33.685547 z M 33.998047 34.373047 A 0.50005 0.50005 0 0 0 33.517578 34.839844 C 33.073578 40.541544 31.254084 46.060759 28.208984 50.943359 A 0.50005 0.50005 0 1 0 29.058594 51.470703 C 32.188094 46.452803 34.057172 40.780669 34.513672 34.917969 A 0.50005 0.50005 0 0 0 33.998047 34.373047 z M 39.939453 35.123047 A 0.50005 0.50005 0 0 0 39.4375 35.621094 C 39.3375 40.855294 38.171066 46.015003 36.009766 50.783203 A 0.50005 0.50005 0 1 0 36.919922 51.195312 C 39.137422 46.303312 40.3352 41.010825 40.4375 35.640625 A 0.50005 0.50005 0 0 0 39.939453 35.123047 z M 21.119141 36.556641 A 0.50005 0.50005 0 0 0 20.642578 37.029297 C 20.450478 39.872297 19.094478 42.509759 16.892578 44.318359 A 0.50005 0.50005 0 1 0 17.527344 45.089844 C 19.942044 43.106544 21.430025 40.215256 21.640625 37.097656 A 0.50005 0.50005 0 0 0 21.119141 36.556641 z M 26.607422 36.564453 L 26.605469 36.566406 A 0.50005 0.50005 0 0 0 26.140625 36.994141 C 25.495125 41.091441 23.845944 44.966284 21.339844 48.271484 A 0.50005 0.50005 0 1 0 22.136719 48.875 C 24.742419 45.4383 26.457906 41.410691 27.128906 37.150391 A 0.50005 0.50005 0 0 0 26.607422 36.564453 z M 42.146484 42.332031 A 0.50005 0.50005 0 0 0 41.664062 42.740234 C 41.193562 45.094434 40.47855 47.393709 39.53125 49.599609 A 0.50005 0.50005 0 1 0 40.449219 49.994141 C 41.424119 47.724441 42.160431 45.357847 42.644531 42.935547 A 0.50005 0.50005 0 0 0 42.146484 42.332031 z M 35.494141 43.767578 A 0.50005 0.50005 0 0 0 35.027344 44.132812 C 34.306144 46.603413 33.335712 48.994131 32.132812 51.269531 A 0.50063728 0.50063728 0 1 0 33.017578 51.738281 C 34.251978 49.403281 35.246228 46.949562 35.986328 44.414062 A 0.50005 0.50005 0 0 0 35.494141 43.767578 z M 27.123047 45.226562 A 0.50005 0.50005 0 0 0 26.708984 45.525391 C 26.027684 47.019191 25.221828 48.452647 24.298828 49.810547 A 0.50005 0.50005 0 1 0 25.125 50.373047 C 26.0796 48.968547 26.914541 47.484653 27.619141 45.939453 A 0.50005 0.50005 0 0 0 27.173828 45.226562 A 0.50005 0.50005 0 0 0 27.123047 45.226562 z " transform="translate(0,988.36214)"/></g><text x="0" y="79.000001" fill="#000000" font-size="5px" font-weight="bold" font-family="'Helvetica Neue', Helvetica, Arial-Unicode, Arial, Sans-serif">Created by Chameleon Design</text><text x="0" y="84.000001" fill="#000000" font-size="5px" font-weight="bold" font-family="'Helvetica Neue', Helvetica, Arial-Unicode, Arial, Sans-serif">from the Noun Project</text></svg>